<svg version="1.1" id="Layer_1" xmlns="http://www.w3.org/2000/svg" xmlns:xlink="http://www.w3.org/1999/xlink" x="0px" y="0px"
	 width="50px" height="50px" viewBox="0 0 50 50" enable-background="new 0 0 50 50" xml:space="preserve">
<g>
	<path fill="#FFFFFF" d="M27.633,45.199c-0.16,0-0.204-0.031-0.986-0.981c-0.221-0.267-0.512-0.62-0.639-0.751
		c-0.132,0.018-0.406,0.069-0.635,0.111c-0.512,0.097-1.093,0.207-1.354,0.207c-0.086,0-0.147-0.012-0.2-0.036
		c-0.08-0.036-0.136-0.112-0.147-0.198c-0.022-0.176-0.023-0.182,1.55-1.486l-0.781-1.312c-0.055-0.091-0.047-0.206,0.019-0.289
		s0.176-0.116,0.277-0.085l1.566,0.493c1.53-1.685,1.566-1.685,1.705-1.685c0.071,0,0.141,0.031,0.189,0.082
		c0.089,0.096,0.131,0.14-0.018,2.301c1.354,0.537,1.342,0.629,1.319,0.823c-0.013,0.103-0.094,0.216-0.245,0.236
		c-0.196,0.026-1.275,0.315-1.671,0.45c0.025,0.138,0.066,0.341,0.103,0.516c0.258,1.262,0.26,1.375,0.153,1.506
		C27.789,45.161,27.709,45.199,27.633,45.199z M26.073,42.949c0.021,0,0.062,0.004,0.082,0.01c0.124,0.03,0.194,0.097,0.885,0.935
		c0.073,0.089,0.158,0.192,0.243,0.294c-0.034-0.173-0.069-0.348-0.099-0.489c-0.157-0.769-0.164-0.799-0.096-0.907
		c0.096-0.156,0.87-0.373,1.45-0.518c-0.221-0.096-0.481-0.203-0.721-0.297c-0.104-0.041-0.169-0.145-0.161-0.256
		c0.041-0.592,0.078-1.228,0.098-1.669c-0.337,0.356-0.818,0.881-1.186,1.284c-0.067,0.074-0.171,0.102-0.266,0.072l-1.084-0.342
		l0.551,0.925c0.064,0.108,0.04,0.247-0.057,0.327c-0.356,0.296-0.737,0.614-1.036,0.869c0.203-0.035,0.416-0.076,0.602-0.11
		C25.727,42.992,25.965,42.949,26.073,42.949z"/>
</g>
<g>
	<path fill="#FFFFFF" d="M12.7,8.121c-0.16,0-0.204-0.031-0.986-0.981c-0.221-0.267-0.512-0.62-0.639-0.751
		c-0.132,0.018-0.406,0.07-0.635,0.112C9.929,6.596,9.348,6.706,9.086,6.706c-0.086,0-0.147-0.011-0.2-0.036
		C8.806,6.634,8.75,6.558,8.738,6.472c-0.022-0.175-0.023-0.181,1.55-1.486L9.507,3.674C9.452,3.583,9.46,3.468,9.525,3.385
		c0.065-0.083,0.176-0.117,0.277-0.084l1.566,0.493c1.53-1.685,1.566-1.685,1.705-1.685c0.071,0,0.141,0.031,0.189,0.083
		c0.089,0.095,0.131,0.14-0.018,2.301c1.354,0.537,1.342,0.629,1.319,0.823c-0.013,0.103-0.094,0.216-0.245,0.236
		c-0.196,0.026-1.275,0.316-1.671,0.451c0.025,0.137,0.066,0.34,0.103,0.516c0.258,1.262,0.26,1.375,0.153,1.505
		C12.856,8.083,12.776,8.121,12.7,8.121z M11.141,5.87c0.021,0,0.062,0.005,0.082,0.01c0.124,0.031,0.194,0.097,0.885,0.935
		c0.073,0.089,0.158,0.192,0.243,0.294c-0.034-0.173-0.069-0.348-0.099-0.489c-0.157-0.769-0.164-0.799-0.096-0.908
		c0.096-0.156,0.87-0.373,1.45-0.517c-0.221-0.096-0.481-0.204-0.721-0.297c-0.104-0.041-0.169-0.144-0.161-0.255
		c0.041-0.592,0.078-1.228,0.098-1.669c-0.337,0.356-0.818,0.881-1.186,1.284c-0.067,0.074-0.171,0.102-0.266,0.072l-1.084-0.342
		l0.551,0.925c0.064,0.108,0.04,0.247-0.057,0.327c-0.356,0.296-0.737,0.615-1.036,0.869c0.203-0.035,0.416-0.075,0.602-0.11
		C10.794,5.914,11.032,5.87,11.141,5.87z"/>
</g>
<g>
	<path fill="#FFFFFF" d="M6.314,20.181c-0.101,0-0.129-0.02-0.623-0.62c-0.14-0.169-0.323-0.392-0.403-0.475
		c-0.083,0.011-0.257,0.044-0.401,0.071c-0.322,0.061-0.689,0.13-0.855,0.13c-0.054,0-0.094-0.007-0.127-0.022
		c-0.05-0.023-0.085-0.071-0.093-0.126c-0.014-0.11-0.015-0.114,0.979-0.938l-0.494-0.829c-0.034-0.058-0.029-0.13,0.012-0.183
		c0.042-0.052,0.111-0.074,0.176-0.054l0.989,0.312c0.967-1.064,0.99-1.064,1.077-1.064c0.046,0,0.089,0.02,0.12,0.052
		c0.057,0.06,0.082,0.088-0.011,1.453c0.855,0.339,0.847,0.398,0.833,0.52c-0.008,0.065-0.059,0.137-0.155,0.149
		c-0.123,0.017-0.805,0.2-1.055,0.285c0.016,0.087,0.042,0.215,0.064,0.326c0.163,0.797,0.164,0.868,0.098,0.951
		C6.414,20.157,6.363,20.181,6.314,20.181z M5.329,18.759c0.014,0,0.039,0.003,0.053,0.006c0.078,0.02,0.123,0.062,0.559,0.591
		c0.046,0.056,0.1,0.121,0.154,0.186c-0.022-0.109-0.045-0.22-0.062-0.309c-0.1-0.486-0.104-0.504-0.061-0.574
		c0.061-0.098,0.549-0.235,0.916-0.327c-0.14-0.061-0.304-0.128-0.455-0.188c-0.066-0.026-0.107-0.091-0.102-0.161
		c0.025-0.374,0.049-0.776,0.061-1.055c-0.212,0.226-0.517,0.557-0.748,0.812c-0.043,0.046-0.109,0.065-0.168,0.046L4.79,17.57
		l0.349,0.584c0.04,0.068,0.025,0.156-0.036,0.207c-0.226,0.187-0.466,0.389-0.655,0.549c0.129-0.021,0.264-0.047,0.381-0.069
		C5.11,18.787,5.26,18.759,5.329,18.759z"/>
</g>
<g>
	<path fill="#FFFFFF" d="M47.23,9.81c-0.16,0-0.204-0.031-0.986-0.98c-0.221-0.268-0.512-0.621-0.639-0.752
		c-0.132,0.018-0.406,0.07-0.635,0.112c-0.512,0.097-1.093,0.206-1.354,0.206c-0.086,0-0.147-0.012-0.2-0.035
		c-0.08-0.037-0.136-0.113-0.147-0.199c-0.022-0.176-0.023-0.182,1.55-1.486l-0.781-1.312c-0.055-0.091-0.047-0.206,0.019-0.289
		c0.065-0.083,0.176-0.117,0.277-0.084l1.566,0.493c1.53-1.685,1.566-1.685,1.705-1.685c0.071,0,0.141,0.031,0.189,0.083
		c0.089,0.095,0.131,0.14-0.018,2.301c1.354,0.537,1.342,0.629,1.319,0.823c-0.013,0.103-0.094,0.216-0.245,0.236
		c-0.196,0.026-1.275,0.316-1.671,0.451c0.025,0.138,0.066,0.341,0.103,0.516c0.258,1.262,0.26,1.374,0.153,1.505
		C47.387,9.772,47.307,9.81,47.23,9.81z M45.671,7.56c0.021,0,0.062,0.005,0.082,0.01c0.124,0.031,0.194,0.097,0.885,0.936
		c0.073,0.088,0.158,0.191,0.243,0.293c-0.034-0.172-0.069-0.348-0.099-0.488c-0.157-0.77-0.164-0.799-0.096-0.908
		c0.096-0.156,0.87-0.373,1.45-0.517c-0.221-0.096-0.481-0.204-0.721-0.297c-0.104-0.041-0.169-0.144-0.161-0.255
		c0.041-0.592,0.078-1.228,0.098-1.669c-0.337,0.356-0.818,0.881-1.186,1.284c-0.067,0.074-0.171,0.102-0.266,0.072l-1.084-0.342
		l0.551,0.925c0.064,0.108,0.04,0.247-0.057,0.327c-0.356,0.296-0.737,0.615-1.036,0.869c0.203-0.035,0.416-0.075,0.602-0.11
		C45.324,7.604,45.562,7.56,45.671,7.56z"/>
</g>
<g>
	<path fill="#FFFFFF" d="M20.976,35.676c-0.089,0-0.112-0.017-0.546-0.543c-0.123-0.148-0.284-0.344-0.354-0.417
		c-0.073,0.01-0.226,0.039-0.352,0.062c-0.284,0.054-0.606,0.114-0.751,0.114c-0.047,0-0.082-0.006-0.111-0.02
		c-0.044-0.021-0.074-0.062-0.081-0.11c-0.013-0.097-0.013-0.101,0.858-0.823l-0.433-0.727c-0.03-0.051-0.026-0.115,0.011-0.16
		c0.035-0.047,0.098-0.064,0.153-0.047l0.868,0.272c0.848-0.934,0.867-0.934,0.945-0.934c0.039,0,0.077,0.017,0.104,0.046
		c0.049,0.053,0.072,0.077-0.01,1.275c0.75,0.297,0.743,0.348,0.731,0.455c-0.008,0.058-0.053,0.12-0.137,0.131
		c-0.108,0.016-0.707,0.176-0.926,0.25c0.014,0.076,0.037,0.189,0.057,0.286c0.143,0.699,0.145,0.762,0.086,0.834
		C21.063,35.655,21.018,35.676,20.976,35.676z M20.112,34.43c0.012,0,0.034,0.002,0.045,0.005c0.069,0.017,0.108,0.054,0.49,0.519
		c0.041,0.049,0.088,0.105,0.135,0.162c-0.018-0.096-0.037-0.192-0.055-0.271c-0.086-0.427-0.09-0.442-0.053-0.503
		c0.053-0.086,0.482-0.207,0.805-0.287c-0.123-0.053-0.268-0.112-0.4-0.164c-0.057-0.023-0.094-0.08-0.089-0.142
		c0.022-0.328,0.044-0.681,0.054-0.925c-0.187,0.197-0.453,0.488-0.656,0.711c-0.037,0.041-0.096,0.057-0.147,0.041l-0.601-0.189
		l0.305,0.512c0.036,0.061,0.022,0.137-0.031,0.182c-0.197,0.164-0.408,0.34-0.574,0.48c0.113-0.019,0.23-0.041,0.334-0.061
		C19.92,34.453,20.051,34.43,20.112,34.43z"/>
</g>
<g>
	<path fill="#FFFFFF" d="M43.063,37.018c-0.16,0-0.203-0.031-0.986-0.982c-0.221-0.267-0.512-0.619-0.639-0.751
		c-0.131,0.018-0.406,0.069-0.635,0.112c-0.512,0.096-1.092,0.206-1.354,0.206c-0.086,0-0.148-0.011-0.201-0.036
		c-0.08-0.036-0.135-0.111-0.146-0.198c-0.023-0.175-0.023-0.181,1.549-1.485L39.87,32.57c-0.055-0.09-0.047-0.205,0.02-0.289
		c0.064-0.082,0.176-0.116,0.277-0.084l1.566,0.492c1.529-1.685,1.566-1.685,1.705-1.685c0.07,0,0.141,0.031,0.189,0.083
		c0.088,0.095,0.131,0.139-0.018,2.301c1.354,0.537,1.342,0.629,1.318,0.822c-0.012,0.104-0.094,0.217-0.244,0.236
		c-0.197,0.026-1.275,0.316-1.672,0.451c0.025,0.137,0.066,0.34,0.104,0.516c0.258,1.262,0.26,1.375,0.152,1.506
		C43.22,36.979,43.14,37.018,43.063,37.018z M41.505,34.767c0.02,0,0.061,0.005,0.082,0.01c0.123,0.03,0.193,0.097,0.885,0.935
		c0.072,0.09,0.158,0.192,0.242,0.295c-0.033-0.174-0.068-0.348-0.098-0.49c-0.158-0.769-0.164-0.799-0.096-0.907
		c0.096-0.155,0.869-0.373,1.449-0.517c-0.221-0.097-0.48-0.204-0.721-0.297c-0.104-0.041-0.168-0.145-0.16-0.256
		c0.041-0.592,0.078-1.229,0.098-1.67c-0.338,0.357-0.818,0.881-1.186,1.285c-0.068,0.073-0.172,0.102-0.266,0.072l-1.084-0.342
		l0.551,0.924c0.064,0.108,0.039,0.247-0.057,0.327c-0.357,0.296-0.738,0.614-1.037,0.869c0.203-0.034,0.416-0.075,0.602-0.11
		C41.157,34.811,41.396,34.767,41.505,34.767z"/>
</g>
<g>
	<path fill="#FFFFFF" d="M38.437,43.925c-0.093,0-0.118-0.019-0.57-0.568c-0.128-0.153-0.296-0.357-0.369-0.434
		c-0.075,0.011-0.234,0.04-0.367,0.065c-0.295,0.055-0.631,0.118-0.781,0.118c-0.05,0-0.086-0.006-0.117-0.021
		c-0.046-0.021-0.077-0.064-0.084-0.114c-0.014-0.102-0.014-0.104,0.895-0.858l-0.451-0.759c-0.031-0.052-0.027-0.118,0.012-0.167
		c0.037-0.047,0.102-0.067,0.16-0.048l0.905,0.284c0.883-0.974,0.904-0.974,0.984-0.974c0.041,0,0.082,0.018,0.11,0.048
		c0.051,0.055,0.075,0.08-0.011,1.33c0.782,0.31,0.775,0.363,0.762,0.475c-0.007,0.06-0.054,0.125-0.141,0.137
		c-0.114,0.016-0.737,0.183-0.966,0.261c0.015,0.079,0.038,0.196,0.06,0.298c0.148,0.729,0.149,0.795,0.088,0.87
		C38.526,43.902,38.48,43.925,38.437,43.925z M37.535,42.624c0.012,0,0.035,0.003,0.048,0.006c0.071,0.018,0.111,0.056,0.511,0.54
		c0.042,0.052,0.092,0.11,0.141,0.17c-0.02-0.101-0.04-0.201-0.057-0.283c-0.092-0.444-0.095-0.462-0.056-0.524
		c0.056-0.09,0.503-0.215,0.838-0.298c-0.128-0.057-0.278-0.118-0.417-0.172c-0.06-0.023-0.097-0.084-0.092-0.147
		c0.023-0.343,0.045-0.71,0.056-0.966c-0.195,0.207-0.473,0.51-0.685,0.743c-0.04,0.042-0.1,0.059-0.153,0.042l-0.627-0.198
		l0.318,0.534c0.037,0.062,0.022,0.143-0.032,0.189c-0.207,0.171-0.427,0.354-0.6,0.502c0.117-0.02,0.24-0.044,0.348-0.063
		C37.335,42.649,37.473,42.624,37.535,42.624z"/>
</g>
<g>
	<path fill="#FFFFFF" d="M32.084,6.136c-0.141,0-0.178-0.027-0.863-0.86c-0.193-0.233-0.447-0.542-0.559-0.657
		c-0.115,0.015-0.355,0.061-0.557,0.098c-0.447,0.084-0.955,0.18-1.184,0.18c-0.076,0-0.131-0.009-0.176-0.031
		c-0.07-0.032-0.119-0.098-0.129-0.174c-0.021-0.153-0.021-0.158,1.355-1.3l-0.684-1.149c-0.049-0.079-0.041-0.18,0.018-0.253
		c0.057-0.072,0.152-0.102,0.242-0.074l1.371,0.431c1.338-1.475,1.371-1.475,1.492-1.475c0.061,0,0.123,0.027,0.166,0.073
		c0.076,0.083,0.115,0.121-0.016,2.014c1.186,0.47,1.174,0.55,1.154,0.72c-0.01,0.09-0.082,0.19-0.215,0.207
		c-0.172,0.023-1.115,0.277-1.463,0.395c0.023,0.12,0.059,0.297,0.092,0.452c0.225,1.104,0.227,1.203,0.133,1.318
		C32.221,6.102,32.15,6.136,32.084,6.136z M30.719,4.166c0.018,0,0.055,0.004,0.072,0.008c0.107,0.027,0.17,0.085,0.775,0.818
		c0.062,0.079,0.139,0.168,0.211,0.258c-0.029-0.152-0.059-0.304-0.084-0.429c-0.139-0.673-0.145-0.699-0.084-0.794
		c0.084-0.136,0.76-0.326,1.268-0.452c-0.193-0.084-0.42-0.179-0.631-0.26c-0.09-0.036-0.146-0.126-0.141-0.224
		c0.037-0.518,0.068-1.076,0.086-1.462c-0.295,0.313-0.717,0.771-1.037,1.125c-0.061,0.064-0.15,0.089-0.232,0.063l-0.949-0.299
		l0.482,0.809c0.057,0.095,0.033,0.216-0.051,0.286c-0.312,0.259-0.645,0.538-0.906,0.761c0.178-0.03,0.363-0.066,0.525-0.097
		C30.416,4.205,30.623,4.166,30.719,4.166z"/>
</g>
<g>
	<path fill="#FFFFFF" d="M15.602,48.907c-0.132,0-0.168-0.025-0.817-0.813c-0.183-0.222-0.424-0.514-0.529-0.623
		c-0.108,0.015-0.337,0.058-0.526,0.094c-0.424,0.079-0.905,0.17-1.122,0.17c-0.071,0-0.123-0.009-0.167-0.029
		c-0.066-0.03-0.112-0.093-0.122-0.164c-0.02-0.146-0.02-0.15,1.284-1.231l-0.647-1.088c-0.045-0.074-0.039-0.17,0.016-0.239
		c0.053-0.068,0.146-0.097,0.23-0.069L14.5,45.32c1.268-1.396,1.298-1.396,1.413-1.396c0.058,0,0.117,0.026,0.157,0.068
		c0.073,0.079,0.109,0.115-0.014,1.907c1.122,0.445,1.112,0.521,1.092,0.682c-0.01,0.085-0.078,0.18-0.202,0.195
		c-0.164,0.021-1.057,0.263-1.386,0.374c0.021,0.113,0.055,0.281,0.086,0.427c0.214,1.046,0.215,1.14,0.126,1.248
		C15.731,48.875,15.665,48.907,15.602,48.907z M14.31,47.042c0.016,0,0.05,0.004,0.068,0.008c0.102,0.025,0.16,0.08,0.733,0.774
		c0.06,0.075,0.131,0.16,0.201,0.245c-0.027-0.145-0.057-0.288-0.081-0.406c-0.131-0.637-0.136-0.662-0.079-0.752
		c0.079-0.129,0.72-0.31,1.201-0.429c-0.183-0.08-0.398-0.169-0.598-0.245c-0.085-0.034-0.139-0.12-0.132-0.213
		c0.034-0.49,0.064-1.018,0.081-1.384c-0.28,0.297-0.678,0.73-0.982,1.065c-0.057,0.061-0.142,0.084-0.22,0.06l-0.898-0.283
		l0.457,0.766c0.053,0.09,0.032,0.205-0.047,0.271c-0.296,0.245-0.612,0.509-0.859,0.72c0.168-0.028,0.345-0.062,0.499-0.091
		C14.022,47.078,14.22,47.042,14.31,47.042z"/>
</g>
<g>
	<path fill="#FFFFFF" d="M5.625,40.619c-0.16,0-0.203-0.031-0.986-0.982C4.418,39.37,4.127,39.018,4,38.886
		c-0.131,0.018-0.406,0.069-0.635,0.112c-0.512,0.096-1.092,0.206-1.354,0.206c-0.086,0-0.148-0.011-0.201-0.036
		c-0.08-0.036-0.135-0.111-0.146-0.198c-0.023-0.175-0.023-0.181,1.549-1.485l-0.781-1.312c-0.055-0.09-0.047-0.205,0.02-0.289
		c0.064-0.082,0.176-0.116,0.277-0.084l1.566,0.492C5.824,34.606,5.861,34.606,6,34.606c0.07,0,0.141,0.031,0.189,0.083
		c0.088,0.095,0.131,0.139-0.018,2.301c1.354,0.537,1.342,0.629,1.318,0.822c-0.012,0.104-0.094,0.217-0.244,0.236
		c-0.197,0.026-1.275,0.316-1.672,0.451c0.025,0.137,0.066,0.34,0.104,0.516c0.258,1.262,0.26,1.375,0.152,1.506
		C5.781,40.58,5.701,40.619,5.625,40.619z M4.066,38.368c0.02,0,0.061,0.005,0.082,0.01c0.123,0.03,0.193,0.097,0.885,0.935
		c0.072,0.09,0.158,0.192,0.242,0.295c-0.033-0.174-0.068-0.348-0.098-0.49c-0.158-0.769-0.164-0.799-0.096-0.907
		c0.096-0.155,0.869-0.373,1.449-0.517c-0.221-0.097-0.48-0.204-0.721-0.297c-0.104-0.041-0.168-0.145-0.16-0.256
		c0.041-0.592,0.078-1.229,0.098-1.67c-0.338,0.357-0.818,0.881-1.186,1.285c-0.068,0.073-0.172,0.102-0.266,0.072l-1.084-0.342
		l0.551,0.924c0.064,0.108,0.039,0.247-0.057,0.327c-0.357,0.296-0.738,0.614-1.037,0.869c0.203-0.034,0.416-0.075,0.602-0.11
		C3.719,38.412,3.957,38.368,4.066,38.368z"/>
</g>
<g>
	<g>
		<path fill="#FFFFFF" d="M9.628,32.567c-2.297,0-7.728-0.288-8.537-2.944c-0.631-2.076,1.802-4.7,7.89-8.502
			c0.24-0.148,0.536-0.172,0.792-0.062c0.502,0.213,3.175,1.278,6.643,1.278c2.841,0,5.481-0.703,7.846-2.088
			c4.911-2.878,5.816-7.089,6.157-8.674c0.042-0.193,0.078-0.353,0.109-0.475c0.048-0.183,0.155-0.345,0.305-0.461
			c2.784-2.156,6.12-3.604,8.301-3.604c0.838,0,1.514,0.204,2.009,0.606c1.609,1.306,1.292,3.886,1.172,4.856
			c-1.013,8.2-10.473,13.763-13.349,15.272C23.246,30.774,16.018,32.566,9.628,32.567z M9.524,22.811
			c-6.944,4.395-6.874,6.025-6.787,6.312c0.211,0.691,2.22,1.726,6.89,1.726c0.001,0,0.002,0,0.002,0
			c6.123-0.001,13.052-1.721,18.54-4.601c1.912-1.006,11.507-6.4,12.442-13.961c0.078-0.644,0.319-2.604-0.55-3.311
			c-0.175-0.144-0.505-0.222-0.926-0.222c-1.742,0-4.589,1.249-7.006,3.06c-0.01,0.039-0.018,0.079-0.025,0.122
			c-0.386,1.787-1.408,6.536-6.971,9.795c-2.632,1.542-5.564,2.324-8.715,2.324l0,0C13.209,24.056,10.657,23.245,9.524,22.811z"/>
	</g>
	<g>
		<path fill="#FFFFFF" d="M16.417,24.056L16.417,24.056c-3.706,0-6.537-1.083-7.316-1.415c-0.302-0.127-0.503-0.417-0.521-0.743
			c-0.02-0.34-0.383-8.356,6.513-11.574c3.725-1.738,6.52-2.513,9.062-2.513c2.741,0,5.196,0.897,7.728,2.823
			c0.275,0.21,0.398,0.567,0.31,0.902c-0.027,0.103-0.055,0.237-0.088,0.4c-0.386,1.787-1.408,6.536-6.971,9.795
			C22.5,23.274,19.568,24.056,16.417,24.056z M10.292,21.262c1.037,0.38,3.321,1.075,6.125,1.075c2.841,0,5.481-0.703,7.846-2.088
			c4.809-2.817,5.777-6.914,6.136-8.571c-2.059-1.464-4.056-2.148-6.245-2.148c-2.278,0-4.849,0.726-8.334,2.353
			C10.864,14.194,10.331,19.532,10.292,21.262z"/>
	</g>
	<g>
		<path fill="#FFFFFF" d="M30.036,33.744c-0.329,0-0.644-0.19-0.786-0.511l-2.41-5.398c-0.193-0.434,0.001-0.941,0.436-1.136
			c0.434-0.194,0.942,0.002,1.136,0.435l2.409,5.399c0.193,0.435,0,0.94-0.436,1.135C30.271,33.72,30.152,33.744,30.036,33.744z"/>
	</g>
	<g>
		<path fill="#FFFFFF" d="M44.221,25.289c-0.124,0-0.25-0.026-0.368-0.083l-7.363-3.497c-0.429-0.204-0.611-0.717-0.407-1.146
			c0.203-0.428,0.716-0.612,1.145-0.408l7.362,3.496c0.43,0.204,0.612,0.717,0.408,1.146C44.85,25.108,44.542,25.289,44.221,25.289z
			"/>
	</g>
	<g>
		<path fill="#FFFFFF" d="M12.698,39.332c-0.068,0-0.137-0.009-0.207-0.025c-0.461-0.113-0.744-0.579-0.629-1.041l1.748-7.093
			c0.113-0.461,0.581-0.741,1.041-0.631c0.461,0.116,0.743,0.581,0.629,1.042l-1.748,7.095
			C13.435,39.069,13.084,39.332,12.698,39.332z"/>
	</g>
	<g>
		<path fill="#FFFFFF" d="M12.528,42.965c-1.125,0-2.582-0.467-2.987-1.779c-0.416-1.351,0.577-2.815,1.767-3.334
			c0.363-0.159,0.761-0.239,1.182-0.239c1.747,0,3.461,1.36,3.461,2.746c0,1.344-1.5,2.382-2.893,2.571
			C12.894,42.953,12.714,42.965,12.528,42.965z M12.489,39.332c-0.182,0-0.349,0.031-0.493,0.096
			c-0.464,0.203-0.941,0.834-0.811,1.251c0.134,0.436,1.049,0.627,1.64,0.547c0.798-0.109,1.406-0.67,1.406-0.867
			C14.231,40.072,13.404,39.332,12.489,39.332z"/>
	</g>
	<g>
		<path fill="#FFFFFF" d="M30.207,37.465c-1.045,0-1.864-0.405-2.304-1.14c-0.729-1.21-0.115-2.869,0.917-3.659
			c0.525-0.403,1.197-0.616,1.943-0.616c1.32,0,2.865,0.726,3.164,1.938c0.321,1.306-0.887,2.673-2.192,3.189
			C31.27,37.363,30.726,37.465,30.207,37.465z M30.764,33.771c-0.254,0-0.616,0.045-0.898,0.261
			c-0.403,0.309-0.714,1.034-0.488,1.41c0.164,0.274,0.636,0.303,0.83,0.303c0.298,0,0.632-0.061,0.894-0.165
			c0.749-0.297,1.205-0.988,1.157-1.178C32.212,34.214,31.584,33.771,30.764,33.771z"/>
	</g>
	<g>
		<path fill="#FFFFFF" d="M45.497,27.846c-0.847,0-1.559-0.317-2-0.896c-0.86-1.121-0.436-2.838,0.5-3.739
			c0.572-0.552,1.393-0.856,2.311-0.856c1.118,0,2.507,0.499,2.913,1.596c0.466,1.261-0.581,2.754-1.82,3.415
			C46.829,27.67,46.135,27.846,45.497,27.846z M46.308,24.073c-0.464,0-0.871,0.138-1.119,0.376
			c-0.365,0.352-0.593,1.108-0.326,1.457c0.14,0.182,0.422,0.222,0.635,0.222c0.349,0,0.777-0.109,1.094-0.279
			c0.71-0.379,1.087-1.118,1.018-1.302C47.557,24.405,47.05,24.073,46.308,24.073z"/>
	</g>
</g>
</svg>
